<svg width="46" height="46" viewBox="0 0 46 46" fill="none" xmlns="http://www.w3.org/2000/svg">
<path d="M5.75 36.4167H40.25V40.25H5.75V36.4167ZM11.5 30.6667C13.6083 30.6667 15.3333 28.9417 15.3333 26.8333C15.3333 25.875 14.95 24.9167 14.375 24.3417L16.8667 19.1667H17.25C18.2083 19.1667 19.1667 18.7833 19.7417 18.2083L24.9167 20.8917V21.0833C24.9167 23.1917 26.6417 24.9167 28.75 24.9167C30.8583 24.9167 32.5833 23.1917 32.5833 21.0833C32.5833 20.125 32.2 19.3583 31.625 18.5917L34.1167 13.4167H34.5C36.6083 13.4167 38.3333 11.6917 38.3333 9.58333C38.3333 7.475 36.6083 5.75 34.5 5.75C32.3917 5.75 30.6667 7.475 30.6667 9.58333C30.6667 10.5417 31.05 11.5 31.625 12.075L29.1333 17.25H28.75C27.7917 17.25 26.8333 17.6333 26.2583 18.2083L21.0833 15.7167V15.3333C21.0833 13.225 19.3583 11.5 17.25 11.5C15.1417 11.5 13.4167 13.225 13.4167 15.3333C13.4167 16.2917 13.8 17.25 14.375 17.825L11.8833 23H11.5C9.39167 23 7.66667 24.725 7.66667 26.8333C7.66667 28.9417 9.39167 30.6667 11.5 30.6667Z" fill="black"/>
</svg>
