<svg width="46" height="46" viewBox="0 0 46 46" fill="none" xmlns="http://www.w3.org/2000/svg">
<path fill-rule="evenodd" clip-rule="evenodd" d="M10.5417 34.4998C10.5417 34.2457 10.6427 34.0019 10.8224 33.8222C11.0022 33.6425 11.2459 33.5415 11.5001 33.5415H34.5001C34.7542 33.5415 34.998 33.6425 35.1777 33.8222C35.3574 34.0019 35.4584 34.2457 35.4584 34.4998C35.4584 34.754 35.3574 34.9978 35.1777 35.1775C34.998 35.3572 34.7542 35.4582 34.5001 35.4582H11.5001C11.2459 35.4582 11.0022 35.3572 10.8224 35.1775C10.6427 34.9978 10.5417 34.754 10.5417 34.4998Z" fill="black"/>
<path d="M17.2499 22.0415H13.4166C12.8873 22.0415 12.4583 22.4706 12.4583 22.9998V34.4998C12.4583 35.0291 12.8873 35.4582 13.4166 35.4582H17.2499C17.7792 35.4582 18.2083 35.0291 18.2083 34.4998V22.9998C18.2083 22.4706 17.7792 22.0415 17.2499 22.0415Z" fill="black"/>
<path d="M24.9167 10.5415H21.0833C20.5541 10.5415 20.125 10.9706 20.125 11.4998V34.4998C20.125 35.0291 20.5541 35.4582 21.0833 35.4582H24.9167C25.4459 35.4582 25.875 35.0291 25.875 34.4998V11.4998C25.875 10.9706 25.4459 10.5415 24.9167 10.5415Z" fill="black"/>
<path d="M32.5834 16.2915H28.7501C28.2208 16.2915 27.7917 16.7206 27.7917 17.2498V34.4998C27.7917 35.0291 28.2208 35.4582 28.7501 35.4582H32.5834C33.1127 35.4582 33.5417 35.0291 33.5417 34.4998V17.2498C33.5417 16.7206 33.1127 16.2915 32.5834 16.2915Z" fill="black"/>
</svg>
