<svg width="45" height="45" viewBox="0 0 45 45" fill="none" xmlns="http://www.w3.org/2000/svg">
<path d="M28.125 39.375L16.875 35.4375L8.15625 38.8125C7.53125 39.0625 6.95312 38.9925 6.42187 38.6025C5.89062 38.2125 5.625 37.6888 5.625 37.0312V10.7812C5.625 10.375 5.7425 10.0156 5.9775 9.70313C6.2125 9.39063 6.5325 9.15625 6.9375 9L16.875 5.625L28.125 9.5625L36.8438 6.1875C37.4688 5.9375 38.0469 6.00813 38.5781 6.39938C39.1094 6.79063 39.375 7.31375 39.375 7.96875V34.2188C39.375 34.625 39.2581 34.9844 39.0244 35.2969C38.7906 35.6094 38.47 35.8438 38.0625 36L28.125 39.375ZM26.25 34.7812V12.8438L18.75 10.2187V32.1562L26.25 34.7812Z" fill="black"/>
</svg>
