<svg width="57" height="57" viewBox="0 0 57 57" fill="none" xmlns="http://www.w3.org/2000/svg">
<path d="M47.5 41.5625C48.4149 41.563 49.2945 41.9154 49.9567 42.5467C50.6188 43.1781 51.0127 44.04 51.0566 44.9538C51.1006 45.8676 50.7913 46.7634 50.1928 47.4554C49.5944 48.1474 48.7526 48.5826 47.842 48.6709L47.5 48.6875H9.5C8.58511 48.687 7.70546 48.3346 7.04333 47.7033C6.3812 47.0719 5.98735 46.21 5.94338 45.2962C5.89941 44.3824 6.20871 43.4866 6.80717 42.7946C7.40563 42.1026 8.24738 41.6674 9.158 41.5791L9.5 41.5625H47.5ZM47.5 24.9375C48.4448 24.9375 49.351 25.3128 50.0191 25.9809C50.6872 26.649 51.0625 27.5552 51.0625 28.5C51.0625 29.4448 50.6872 30.351 50.0191 31.0191C49.351 31.6872 48.4448 32.0625 47.5 32.0625H9.5C8.55517 32.0625 7.64903 31.6872 6.98093 31.0191C6.31283 30.351 5.9375 29.4448 5.9375 28.5C5.9375 27.5552 6.31283 26.649 6.98093 25.9809C7.64903 25.3128 8.55517 24.9375 9.5 24.9375H47.5ZM47.5 8.3125C48.4448 8.3125 49.351 8.68783 50.0191 9.35593C50.6872 10.024 51.0625 10.9302 51.0625 11.875C51.0625 12.8198 50.6872 13.726 50.0191 14.3941C49.351 15.0622 48.4448 15.4375 47.5 15.4375H9.5C8.55517 15.4375 7.64903 15.0622 6.98093 14.3941C6.31283 13.726 5.9375 12.8198 5.9375 11.875C5.9375 10.9302 6.31283 10.024 6.98093 9.35593C7.64903 8.68783 8.55517 8.3125 9.5 8.3125H47.5Z" fill="black"/>
</svg>
