<svg width="40" height="40" viewBox="0 0 40 40" fill="none" xmlns="http://www.w3.org/2000/svg">
<path d="M31.9999 10.8335L20.0833 5.3335L3.83325 10.0835L11.1666 21.0835L9.33325 33.6668H28.2499L33.7499 22.5835L31.9999 10.8335ZM26.7499 31.2502H12.2499L13.7499 20.5002L7.83325 11.5835L19.9166 8.00016L29.6666 12.5002L31.1666 22.2502L26.7499 31.2502Z" fill="#CFD8DC"/>
<path d="M20.0001 10.0002C21.841 10.0002 23.3334 8.50778 23.3334 6.66683C23.3334 4.82588 21.841 3.3335 20.0001 3.3335C18.1591 3.3335 16.6667 4.82588 16.6667 6.66683C16.6667 8.50778 18.1591 10.0002 20.0001 10.0002Z" fill="black"/>
<path d="M30.8333 15.0002C32.6743 15.0002 34.1667 13.5078 34.1667 11.6668C34.1667 9.82588 32.6743 8.3335 30.8333 8.3335C28.9924 8.3335 27.5 9.82588 27.5 11.6668C27.5 13.5078 28.9924 15.0002 30.8333 15.0002Z" fill="black"/>
<path d="M32.5001 25.8337C34.341 25.8337 35.8334 24.3413 35.8334 22.5003C35.8334 20.6594 34.341 19.167 32.5001 19.167C30.6591 19.167 29.1667 20.6594 29.1667 22.5003C29.1667 24.3413 30.6591 25.8337 32.5001 25.8337Z" fill="black"/>
<path d="M5.83333 14.1667C7.67428 14.1667 9.16667 12.6743 9.16667 10.8333C9.16667 8.99238 7.67428 7.5 5.83333 7.5C3.99238 7.5 2.5 8.99238 2.5 10.8333C2.5 12.6743 3.99238 14.1667 5.83333 14.1667Z" fill="black"/>
<path d="M10.8333 35.8337C12.6743 35.8337 14.1667 34.3413 14.1667 32.5003C14.1667 30.6594 12.6743 29.167 10.8333 29.167C8.99238 29.167 7.5 30.6594 7.5 32.5003C7.5 34.3413 8.99238 35.8337 10.8333 35.8337Z" fill="black"/>
<path d="M12.5001 24.1667C14.341 24.1667 15.8334 22.6743 15.8334 20.8333C15.8334 18.9924 14.341 17.5 12.5001 17.5C10.6591 17.5 9.16675 18.9924 9.16675 20.8333C9.16675 22.6743 10.6591 24.1667 12.5001 24.1667Z" fill="black"/>
<path d="M27.5001 35.8337C29.341 35.8337 30.8334 34.3413 30.8334 32.5003C30.8334 30.6594 29.341 29.167 27.5001 29.167C25.6591 29.167 24.1667 30.6594 24.1667 32.5003C24.1667 34.3413 25.6591 35.8337 27.5001 35.8337Z" fill="black"/>
</svg>
